<svg width="109" height="85" viewBox="0 0 109 85" fill="none" xmlns="http://www.w3.org/2000/svg">
<ellipse cx="47.8656" cy="32.3694" rx="47.8656" ry="32.3694" transform="matrix(0.978282 0.207278 -0.208548 0.978012 13.5015 1.84161)" fill="#FF0101"/>
<path d="M102.005 51.4488C100.163 60.0853 93.3119 66.8356 83.667 70.7485C74.0237 74.6609 61.6131 75.7232 48.7247 72.9924C35.8363 70.2616 24.9322 64.2594 17.7189 56.7755C10.5045 49.2904 7.00004 40.346 8.84165 31.7095C10.6833 23.0731 17.5344 16.3228 27.1793 12.4098C36.8226 8.4975 49.2332 7.43519 62.1216 10.166C75.01 12.8968 85.9142 18.899 93.1274 26.3828C100.342 33.868 103.846 42.8124 102.005 51.4488Z" fill="#2928FC" stroke="#2928FC" stroke-width="0.5"/>
<path d="M60.6397 38.824L60.7004 23.935C60.7004 23.9025 60.6796 23.8734 60.6488 23.8634L55.3057 22.1037C54.8629 21.9581 54.3917 21.9164 53.9298 21.9839L53.9264 21.9847C53.4644 22.0521 53.0241 22.2261 52.6404 22.4925L48.6774 25.2477C48.4543 25.4025 48.1738 25.4491 47.9124 25.3734L44.5553 24.402C43.7887 24.1589 42.68 24.4461 41.9499 24.8173C40.1986 25.7088 38.2949 27.2488 36.8948 28.7088C36.6842 29.0584 36.4811 29.3947 36.2714 29.7443L36.1939 29.9748C36.0658 30.3586 36 30.7598 36 31.1643L36.0483 41.2363C36.0483 41.4935 36.1523 41.8023 36.3613 42.1045C36.8532 42.8178 37.5549 43.3597 38.3573 43.6869C40.5848 44.595 45.2421 46.5103 45.8331 46.7401C46.0886 46.8391 46.4066 46.8483 46.7221 46.8142C47.3863 46.7426 48.0139 46.4754 48.5458 46.07C50.651 44.4677 52.7819 42.658 53.4029 42.1261C53.5219 42.0246 53.6293 41.9105 53.725 41.7865L53.7258 41.7857C53.8765 41.5892 53.9939 41.3703 54.0721 41.1356C54.0929 41.0723 54.1154 40.9916 54.1379 40.9033C54.2561 40.4355 54.3152 39.9552 54.3235 39.4733L54.3668 36.9095M43.0362 36.0338C43.0396 34.7786 43.0287 33.4459 43.0321 32.1915C43.0321 32.1324 43.0912 32.1124 43.1478 32.1299C44.3006 32.4962 44.9665 32.8291 46.782 33.4767C46.8353 33.4959 46.8428 33.4418 46.797 33.4767L43.1569 36.0929C43.1078 36.1312 43.0362 36.0971 43.0362 36.0338ZM53.6176 35.0466L50.2964 33.1438C50.2597 33.118 50.2572 33.1729 50.2914 33.1438L53.6351 30.699C53.68 30.6599 53.7508 30.6915 53.7508 30.7515C53.7433 32.164 53.735 33.5774 53.7275 34.99C53.7267 35.0466 53.6634 35.0791 53.6176 35.0466Z" fill="white"/>
<path d="M38.6478 29.5454C38.6394 29.5479 37.8312 29.8275 37.5398 30.6974C37.2477 31.5672 37.2735 40.7785 37.3342 40.8859C37.3342 40.8851 37.3351 40.8867 37.3342 40.8859C37.3392 40.9217 37.6006 42.1029 38.5837 42.4982C39.4019 42.8279 44.0334 44.6858 45.6607 45.3384C46.2142 45.5606 46.7211 45.7354 47.2797 45.5257C47.5053 45.4408 47.8848 45.2352 48.038 45.0579C48.5449 44.471 48.3435 41.1847 48.3293 40.9633C48.3285 40.9558 48.1579 41.0332 48.1512 41.0307L43.4665 39.1537C42.5434 38.7841 41.8883 37.9359 41.7934 36.9462C41.7742 36.7464 41.8025 36.5316 41.7901 36.3027C41.6952 34.5897 41.8874 31.1394 41.9415 29.9349C41.994 28.7529 38.6652 29.5412 38.6478 29.5454Z" fill="#2928FC"/>
<path d="M43.8745 37.5272L48.4469 34.1552C49.33 34.2367 50.0825 34.3583 51.0081 34.6621C51.436 34.8028 51.6491 34.9251 51.982 35.1141C52.2018 35.2389 52.4623 35.5228 52.5955 35.7375C52.5963 35.7392 52.5972 35.74 52.598 35.7417C52.6946 35.8998 52.7753 36.0488 52.8153 36.192C52.8502 36.3169 52.8211 36.1829 52.9002 36.545C53.0283 37.1351 53.015 37.8094 53.02 38.5285C53.0242 39.1445 52.9984 39.7222 52.9534 40.2558C52.9151 40.7061 52.7195 41.1273 52.3957 41.4428C52.2134 41.6201 52.0012 41.8232 51.7639 42.0429C49.9144 43.7535 47.9549 45.1394 47.9549 45.1394C48.2279 44.039 48.2879 43.1184 48.272 42.4733C48.2404 41.2014 48.2005 39.579 47.1475 38.7691C46.9311 38.6026 46.5199 38.4453 45.6983 38.1315C44.9533 37.8468 44.3198 37.6529 43.8745 37.5272Z" fill="#FF0101"/>
<path d="M55.3329 27.6425L55.2197 35.5935L59.5973 36.9262L59.7063 25.678C59.509 25.5365 59.2136 25.3443 58.8307 25.1628C58.551 25.0304 58.3512 24.9364 58.1922 24.9081C58.1914 24.9081 57.4772 24.7807 55.3329 27.6425Z" fill="#2928FC"/>
<path d="M45.8533 31.6987C45.2024 31.5389 44.5615 31.3416 43.9305 31.1144C43.1039 30.8164 41.728 30.4268 41.0871 30.3394C39.8551 30.1696 38.7863 30.0955 37.9473 30.0623C38.6823 28.8944 40.5643 26.9358 42.925 26.2699C43.5742 26.0867 44.2643 26.1034 44.9077 26.3065C45.7926 26.5862 47.0586 26.9857 47.0586 26.9857C47.9418 27.2646 48.9041 27.1114 49.6565 26.5729L52.9062 24.2463C53.2075 24.0307 53.5546 23.8892 53.9209 23.8326C54.2214 23.7868 54.5269 23.7985 54.8224 23.8684C55.9428 24.1348 58.8062 24.8714 59.7069 25.6589C58.9744 25.8953 57.9397 26.2907 56.7902 26.9591C56.4064 27.1822 56.0843 27.3778 55.7505 27.6075C55.5607 27.7382 55.4009 27.8564 55.2794 27.9496C55.1653 28.037 55.0813 28.1036 55.0538 28.1261C53.9317 29.0218 52.6049 29.999 51.7708 30.5642C50.4257 31.4757 49.6099 32.0292 48.4654 32.0999C47.8253 32.1391 46.719 31.911 45.8533 31.6987Z" fill="#FF0101"/>
<path d="M64.0536 39.9594C65.2947 40.3457 66.5258 40.7203 67.7461 41.084L67.7319 26.8884L73.9999 21.1557L69.6789 19.3485C68.0749 18.6776 66.1679 18.9923 64.8427 20.146L60.1313 24.2963L60.2862 38.7158C60.3736 38.7466 60.4618 38.7774 60.55 38.8082C61.7237 39.2194 62.8924 39.6032 64.0536 39.9594Z" fill="white"/>
<path d="M63.0571 23.7094L65.8998 21.2704C66.6839 20.5979 67.7993 20.4081 68.749 20.786L71.0231 21.6891L67.4264 25.0853L63.0571 23.7094Z" fill="#FF0101"/>
<path d="M61.5514 26.3456L66.2994 27.804L66.2303 39.3152L61.5015 37.5863L61.5514 26.3456Z" fill="#2928FC"/>
<path d="M28.9772 56.08C28.4866 56.08 28.0599 55.9867 27.6972 55.8C27.3399 55.6133 27.0332 55.3413 26.7772 54.984L27.4492 54.216C27.7106 54.584 27.9639 54.8373 28.2092 54.976C28.4599 55.1093 28.7426 55.176 29.0572 55.176C29.2386 55.176 29.4039 55.1493 29.5532 55.096C29.7026 55.0427 29.8199 54.968 29.9052 54.872C29.9906 54.7707 30.0332 54.6533 30.0332 54.52C30.0332 54.4293 30.0146 54.3467 29.9772 54.272C29.9452 54.192 29.8946 54.1227 29.8252 54.064C29.7612 54 29.6786 53.9413 29.5772 53.888C29.4812 53.8347 29.3666 53.7893 29.2332 53.752C29.1052 53.7093 28.9639 53.6747 28.8092 53.648C28.5106 53.5893 28.2519 53.512 28.0332 53.416C27.8199 53.3147 27.6386 53.192 27.4892 53.048C27.3452 52.8987 27.2359 52.7333 27.1612 52.552C27.0919 52.3653 27.0572 52.1547 27.0572 51.92C27.0572 51.6053 27.1452 51.328 27.3212 51.088C27.5026 50.8427 27.7426 50.6507 28.0412 50.512C28.3452 50.3733 28.6786 50.304 29.0412 50.304C29.5106 50.304 29.9079 50.3893 30.2332 50.56C30.5639 50.7307 30.8226 50.9733 31.0092 51.288L30.3212 51.96C30.1612 51.7147 29.9719 51.528 29.7532 51.4C29.5346 51.272 29.2972 51.208 29.0412 51.208C28.8492 51.208 28.6812 51.2373 28.5372 51.296C28.3986 51.3493 28.2892 51.4267 28.2092 51.528C28.1292 51.624 28.0892 51.7413 28.0892 51.88C28.0892 51.9813 28.1106 52.0747 28.1532 52.16C28.2012 52.2453 28.2706 52.32 28.3612 52.384C28.4519 52.448 28.5666 52.504 28.7052 52.552C28.8439 52.6 29.0039 52.6427 29.1852 52.68C29.4786 52.744 29.7399 52.824 29.9692 52.92C30.2039 53.016 30.4012 53.1333 30.5612 53.272C30.7266 53.4053 30.8519 53.56 30.9372 53.736C31.0226 53.9067 31.0652 54.0987 31.0652 54.312C31.0652 54.6747 30.9799 54.9893 30.8092 55.256C30.6386 55.5227 30.3959 55.728 30.0812 55.872C29.7666 56.0107 29.3986 56.08 28.9772 56.08ZM33.9687 56.08C33.5473 56.08 33.1713 55.9867 32.8407 55.8C32.51 55.608 32.2487 55.3467 32.0567 55.016C31.87 54.6853 31.7767 54.3093 31.7767 53.888C31.7767 53.4667 31.87 53.0907 32.0567 52.76C32.2487 52.4293 32.51 52.1707 32.8407 51.984C33.1713 51.792 33.5473 51.696 33.9687 51.696C34.3847 51.696 34.758 51.792 35.0887 51.984C35.4193 52.1707 35.678 52.4293 35.8647 52.76C36.0567 53.0907 36.1527 53.4667 36.1527 53.888C36.1527 54.3093 36.0567 54.6853 35.8647 55.016C35.678 55.3467 35.4193 55.608 35.0887 55.8C34.758 55.9867 34.3847 56.08 33.9687 56.08ZM33.9687 55.208C34.198 55.208 34.4033 55.152 34.5847 55.04C34.766 54.9227 34.9073 54.7653 35.0087 54.568C35.1153 54.3653 35.166 54.1387 35.1607 53.888C35.166 53.632 35.1153 53.4053 35.0087 53.208C34.9073 53.0053 34.766 52.848 34.5847 52.736C34.4033 52.624 34.198 52.568 33.9687 52.568C33.7393 52.568 33.5313 52.6267 33.3447 52.744C33.1633 52.856 33.022 53.0133 32.9207 53.216C32.8193 53.4133 32.7687 53.6373 32.7687 53.888C32.7687 54.1387 32.8193 54.3653 32.9207 54.568C33.022 54.7653 33.1633 54.9227 33.3447 55.04C33.5313 55.152 33.7393 55.208 33.9687 55.208ZM38.841 56.08C38.4464 56.08 38.0917 55.984 37.777 55.792C37.4624 55.6 37.2144 55.3387 37.033 55.008C36.8517 54.6773 36.761 54.304 36.761 53.888C36.761 53.472 36.8517 53.0987 37.033 52.768C37.2144 52.4373 37.4624 52.176 37.777 51.984C38.0917 51.792 38.4464 51.696 38.841 51.696C39.2144 51.696 39.5557 51.7707 39.865 51.92C40.1797 52.064 40.4197 52.2613 40.585 52.512L40.049 53.168C39.969 53.056 39.8677 52.9547 39.745 52.864C39.6224 52.7733 39.489 52.7013 39.345 52.648C39.2064 52.5947 39.0704 52.568 38.937 52.568C38.697 52.568 38.4837 52.6267 38.297 52.744C38.1157 52.856 37.9717 53.0133 37.865 53.216C37.7584 53.4133 37.705 53.6373 37.705 53.888C37.705 54.1387 37.7584 54.3627 37.865 54.56C37.977 54.7573 38.1264 54.9147 38.313 55.032C38.4997 55.1493 38.7077 55.208 38.937 55.208C39.081 55.208 39.217 55.1867 39.345 55.144C39.473 55.096 39.5957 55.0293 39.713 54.944C39.8357 54.8587 39.9477 54.752 40.049 54.624L40.585 55.28C40.409 55.5147 40.161 55.7067 39.841 55.856C39.521 56.0053 39.1877 56.08 38.841 56.08ZM41.4497 56V51.784H42.4257V56H41.4497ZM41.9297 50.888C41.7324 50.888 41.5777 50.84 41.4657 50.744C41.3591 50.6427 41.3057 50.5013 41.3057 50.32C41.3057 50.1493 41.3617 50.0133 41.4737 49.912C41.5857 49.8053 41.7377 49.752 41.9297 49.752C42.1271 49.752 42.2791 49.8027 42.3857 49.904C42.4977 50 42.5537 50.1387 42.5537 50.32C42.5537 50.4853 42.4977 50.6213 42.3857 50.728C42.2737 50.8347 42.1217 50.888 41.9297 50.888ZM46.0817 56V53.304C46.0817 53.0747 46.0043 52.896 45.8497 52.768C45.7003 52.6347 45.5057 52.568 45.2657 52.568C45.0417 52.568 44.839 52.6133 44.6577 52.704C44.4763 52.7893 44.3083 52.928 44.1537 53.12L43.5457 52.512C43.7963 52.2453 44.0737 52.0427 44.3777 51.904C44.6817 51.7653 45.0097 51.696 45.3617 51.696C45.6977 51.696 45.9857 51.7493 46.2257 51.856C46.471 51.9627 46.6603 52.1227 46.7937 52.336C46.927 52.544 46.9937 52.8 46.9937 53.104V56H46.0817ZM44.8817 56.08C44.6097 56.08 44.367 56.0267 44.1537 55.92C43.9403 55.8133 43.7697 55.6667 43.6417 55.48C43.519 55.288 43.4577 55.064 43.4577 54.808C43.4577 54.584 43.4977 54.3893 43.5777 54.224C43.6577 54.0533 43.775 53.912 43.9297 53.8C44.0897 53.688 44.287 53.6053 44.5217 53.552C44.7617 53.4933 45.0363 53.464 45.3457 53.464H46.5537L46.4817 54.168H45.2897C45.1457 54.168 45.0177 54.1813 44.9057 54.208C44.7937 54.2347 44.6977 54.2747 44.6177 54.328C44.5377 54.3813 44.479 54.4453 44.4417 54.52C44.4043 54.5893 44.3857 54.6747 44.3857 54.776C44.3857 54.8827 44.4123 54.976 44.4657 55.056C44.519 55.1307 44.591 55.1893 44.6817 55.232C44.7723 55.2747 44.879 55.296 45.0017 55.296C45.1777 55.296 45.343 55.2667 45.4977 55.208C45.6577 55.1493 45.799 55.0667 45.9217 54.96C46.0443 54.8533 46.1403 54.7333 46.2097 54.6L46.4097 55.144C46.2977 55.3307 46.159 55.4933 45.9937 55.632C45.8337 55.7707 45.6577 55.88 45.4657 55.96C45.279 56.04 45.0843 56.08 44.8817 56.08ZM48.041 56V50.08H49.017V56H48.041ZM52.7012 56V50.4H53.6292L56.8932 54.784L56.7172 54.824C56.6799 54.5787 56.6479 54.3173 56.6212 54.04C56.5999 53.7627 56.5839 53.4613 56.5732 53.136C56.5626 52.8107 56.5572 52.456 56.5572 52.072V50.4H57.5812V56H56.6372L53.3732 51.688L53.5652 51.632C53.6026 52.0107 53.6319 52.3227 53.6532 52.568C53.6746 52.808 53.6906 53.0053 53.7012 53.16C53.7119 53.3147 53.7172 53.4427 53.7172 53.544C53.7226 53.6453 53.7252 53.7413 53.7252 53.832V56H52.7012ZM60.884 56.08C60.4414 56.08 60.0494 55.9893 59.708 55.808C59.372 55.6213 59.108 55.368 58.916 55.048C58.7294 54.7227 58.636 54.3493 58.636 53.928C58.636 53.5973 58.6894 53.296 58.796 53.024C58.9027 52.752 59.052 52.5173 59.244 52.32C59.436 52.1173 59.6627 51.9627 59.924 51.856C60.1907 51.744 60.4787 51.688 60.788 51.688C61.0707 51.688 61.3294 51.7413 61.564 51.848C61.804 51.9547 62.012 52.1013 62.188 52.288C62.364 52.4693 62.4974 52.688 62.588 52.944C62.684 53.1947 62.7294 53.4693 62.724 53.768L62.716 54.12H59.308L59.116 53.44H61.892L61.772 53.576V53.392C61.756 53.232 61.7027 53.0907 61.612 52.968C61.5214 52.84 61.404 52.7413 61.26 52.672C61.1214 52.5973 60.9667 52.56 60.796 52.56C60.5347 52.56 60.3134 52.6107 60.132 52.712C59.9507 52.808 59.812 52.952 59.716 53.144C59.6254 53.336 59.58 53.5733 59.58 53.856C59.58 54.128 59.636 54.3653 59.748 54.568C59.8654 54.7707 60.0307 54.928 60.244 55.04C60.4574 55.152 60.7054 55.208 60.988 55.208C61.1854 55.208 61.3667 55.176 61.532 55.112C61.7027 55.048 61.884 54.9333 62.076 54.768L62.556 55.44C62.412 55.5733 62.2467 55.688 62.06 55.784C61.8787 55.8747 61.6867 55.9467 61.484 56C61.2814 56.0533 61.0814 56.08 60.884 56.08ZM64.0595 56V50.712H65.0355V56H64.0595ZM63.2275 52.696V51.784H65.9555V52.696H63.2275ZM67.6969 56L66.2809 51.784L67.2889 51.776L68.2329 54.792L68.0489 54.768L69.0809 52.424H69.6649L70.7209 54.776L70.5129 54.792L71.4649 51.784H72.4729L71.0409 56H70.3529L69.2649 53.464L69.4169 53.48L68.3929 56H67.6969ZM74.9921 56.08C74.5708 56.08 74.1948 55.9867 73.8641 55.8C73.5334 55.608 73.2721 55.3467 73.0801 55.016C72.8934 54.6853 72.8001 54.3093 72.8001 53.888C72.8001 53.4667 72.8934 53.0907 73.0801 52.76C73.2721 52.4293 73.5334 52.1707 73.8641 51.984C74.1948 51.792 74.5708 51.696 74.9921 51.696C75.4081 51.696 75.7814 51.792 76.1121 51.984C76.4428 52.1707 76.7014 52.4293 76.8881 52.76C77.0801 53.0907 77.1761 53.4667 77.1761 53.888C77.1761 54.3093 77.0801 54.6853 76.8881 55.016C76.7014 55.3467 76.4428 55.608 76.1121 55.8C75.7814 55.9867 75.4081 56.08 74.9921 56.08ZM74.9921 55.208C75.2214 55.208 75.4268 55.152 75.6081 55.04C75.7894 54.9227 75.9308 54.7653 76.0321 54.568C76.1388 54.3653 76.1894 54.1387 76.1841 53.888C76.1894 53.632 76.1388 53.4053 76.0321 53.208C75.9308 53.0053 75.7894 52.848 75.6081 52.736C75.4268 52.624 75.2214 52.568 74.9921 52.568C74.7628 52.568 74.5548 52.6267 74.3681 52.744C74.1868 52.856 74.0454 53.0133 73.9441 53.216C73.8428 53.4133 73.7921 53.6373 73.7921 53.888C73.7921 54.1387 73.8428 54.3653 73.9441 54.568C74.0454 54.7653 74.1868 54.9227 74.3681 55.04C74.5548 55.152 74.7628 55.208 74.9921 55.208ZM78.0565 56V51.784H79.0165L79.0325 53.128L78.9045 52.824C78.9631 52.6107 79.0645 52.4187 79.2085 52.248C79.3525 52.0773 79.5178 51.944 79.7045 51.848C79.8965 51.7467 80.0938 51.696 80.2965 51.696C80.3871 51.696 80.4725 51.704 80.5525 51.72C80.6378 51.736 80.7071 51.7547 80.7605 51.776L80.5045 52.848C80.4405 52.816 80.3658 52.792 80.2805 52.776C80.2005 52.7547 80.1178 52.744 80.0325 52.744C79.8938 52.744 79.7631 52.7707 79.6405 52.824C79.5231 52.872 79.4191 52.9413 79.3285 53.032C79.2431 53.1227 79.1738 53.2293 79.1205 53.352C79.0671 53.4693 79.0405 53.6 79.0405 53.744V56H78.0565ZM82.3357 54.712L82.1517 53.784L84.1517 51.784H85.4557L82.3357 54.712ZM81.4237 56V50.08H82.3997V56H81.4237ZM84.2637 56L82.7197 54.128L83.4077 53.536L85.4797 56H84.2637ZM48.2219 66L50.4059 60.4H51.3739L53.5419 66H52.4699L51.2619 62.8C51.2406 62.7413 51.2059 62.6427 51.1579 62.504C51.1153 62.3653 51.0673 62.2133 51.0139 62.048C50.9606 61.8827 50.9099 61.7307 50.8619 61.592C50.8193 61.4533 50.7899 61.3493 50.7739 61.28L50.9739 61.272C50.9419 61.3787 50.9046 61.5013 50.8619 61.64C50.8193 61.7733 50.7739 61.912 50.7259 62.056C50.6779 62.2 50.6299 62.3387 50.5819 62.472C50.5339 62.6053 50.4913 62.7253 50.4539 62.832L49.2539 66H48.2219ZM49.2139 64.712L49.5659 63.816H52.1179L52.5099 64.712H49.2139ZM54.2557 67.76V61.784H55.2157L55.2317 62.736L55.0637 62.664C55.0957 62.4987 55.1864 62.344 55.3357 62.2C55.485 62.056 55.6664 61.9387 55.8797 61.848C56.0984 61.7573 56.325 61.712 56.5597 61.712C56.933 61.712 57.2637 61.8053 57.5517 61.992C57.845 62.1787 58.0744 62.4373 58.2397 62.768C58.4104 63.0933 58.4957 63.4667 58.4957 63.888C58.4957 64.3093 58.413 64.6853 58.2477 65.016C58.0824 65.3413 57.853 65.6 57.5597 65.792C57.2717 65.9787 56.9437 66.072 56.5757 66.072C56.3304 66.072 56.093 66.024 55.8637 65.928C55.6397 65.832 55.4504 65.7067 55.2957 65.552C55.141 65.3973 55.0424 65.2373 54.9997 65.072L55.2397 64.952V67.76H54.2557ZM56.3837 65.2C56.6077 65.2 56.8077 65.144 56.9837 65.032C57.1597 64.92 57.2984 64.7653 57.3997 64.568C57.501 64.3707 57.5517 64.144 57.5517 63.888C57.5517 63.632 57.501 63.408 57.3997 63.216C57.3037 63.0187 57.1677 62.864 56.9917 62.752C56.8157 62.6347 56.613 62.576 56.3837 62.576C56.149 62.576 55.9437 62.632 55.7677 62.744C55.5917 62.856 55.453 63.0107 55.3517 63.208C55.2504 63.4053 55.1997 63.632 55.1997 63.888C55.1997 64.144 55.2504 64.3707 55.3517 64.568C55.453 64.7653 55.5917 64.92 55.7677 65.032C55.9437 65.144 56.149 65.2 56.3837 65.2ZM59.3729 67.76V61.784H60.3329L60.3489 62.736L60.1809 62.664C60.2129 62.4987 60.3035 62.344 60.4529 62.2C60.6022 62.056 60.7835 61.9387 60.9969 61.848C61.2155 61.7573 61.4422 61.712 61.6769 61.712C62.0502 61.712 62.3809 61.8053 62.6689 61.992C62.9622 62.1787 63.1915 62.4373 63.3569 62.768C63.5275 63.0933 63.6129 63.4667 63.6129 63.888C63.6129 64.3093 63.5302 64.6853 63.3649 65.016C63.1995 65.3413 62.9702 65.6 62.6769 65.792C62.3889 65.9787 62.0609 66.072 61.6929 66.072C61.4475 66.072 61.2102 66.024 60.9809 65.928C60.7569 65.832 60.5675 65.7067 60.4129 65.552C60.2582 65.3973 60.1595 65.2373 60.1169 65.072L60.3569 64.952V67.76H59.3729ZM61.5009 65.2C61.7249 65.2 61.9249 65.144 62.1009 65.032C62.2769 64.92 62.4155 64.7653 62.5169 64.568C62.6182 64.3707 62.6689 64.144 62.6689 63.888C62.6689 63.632 62.6182 63.408 62.5169 63.216C62.4209 63.0187 62.2849 62.864 62.1089 62.752C61.9329 62.6347 61.7302 62.576 61.5009 62.576C61.2662 62.576 61.0609 62.632 60.8849 62.744C60.7089 62.856 60.5702 63.0107 60.4689 63.208C60.3675 63.4053 60.3169 63.632 60.3169 63.888C60.3169 64.144 60.3675 64.3707 60.4689 64.568C60.5702 64.7653 60.7089 64.92 60.8849 65.032C61.0609 65.144 61.2662 65.2 61.5009 65.2Z" fill="white"/>
</svg>
