<svg width="109" height="85" viewBox="0 0 109 85" fill="none" xmlns="http://www.w3.org/2000/svg">
<ellipse cx="47.8656" cy="32.3694" rx="47.8656" ry="32.3694" transform="matrix(0.978282 0.207278 -0.208548 0.978012 13.5015 1.84161)" fill="#FF0101"/>
<path d="M102.005 51.4488C100.163 60.0853 93.3119 66.8356 83.667 70.7485C74.0237 74.6609 61.6131 75.7232 48.7247 72.9924C35.8363 70.2616 24.9322 64.2594 17.7189 56.7755C10.5045 49.2904 7.00004 40.346 8.84165 31.7095C10.6833 23.0731 17.5344 16.3228 27.1793 12.4098C36.8226 8.4975 49.2332 7.43519 62.1216 10.166C75.01 12.8968 85.9142 18.899 93.1274 26.3828C100.342 33.868 103.846 42.8124 102.005 51.4488Z" fill="#2928FC" stroke="#2928FC" stroke-width="0.5"/>
<path d="M60.6397 39.824L60.7004 24.935C60.7004 24.9025 60.6796 24.8734 60.6488 24.8634L55.3057 23.1037C54.8629 22.9581 54.3917 22.9164 53.9298 22.9839L53.9264 22.9847C53.4644 23.0521 53.0241 23.2261 52.6404 23.4925L48.6774 26.2477C48.4543 26.4025 48.1738 26.4491 47.9124 26.3734L44.5553 25.402C43.7887 25.1589 42.68 25.4461 41.9499 25.8173C40.1986 26.7088 38.2949 28.2488 36.8948 29.7088C36.6842 30.0584 36.4811 30.3947 36.2714 30.7443L36.1939 30.9748C36.0658 31.3586 36 31.7598 36 32.1643L36.0483 42.2363C36.0483 42.4935 36.1523 42.8023 36.3613 43.1045C36.8532 43.8178 37.5549 44.3597 38.3573 44.6869C40.5848 45.595 45.2421 47.5103 45.8331 47.7401C46.0886 47.8391 46.4066 47.8483 46.7221 47.8142C47.3863 47.7426 48.0139 47.4754 48.5458 47.07C50.651 45.4677 52.7819 43.658 53.4029 43.1261C53.5219 43.0246 53.6293 42.9105 53.725 42.7865L53.7258 42.7857C53.8765 42.5892 53.9939 42.3703 54.0721 42.1356C54.0929 42.0723 54.1154 41.9916 54.1379 41.9033C54.2561 41.4355 54.3152 40.9552 54.3235 40.4733L54.3668 37.9095M43.0362 37.0338C43.0396 35.7786 43.0287 34.4459 43.0321 33.1915C43.0321 33.1324 43.0912 33.1124 43.1478 33.1299C44.3006 33.4962 44.9665 33.8291 46.782 34.4767C46.8353 34.4959 46.8428 34.4418 46.797 34.4767L43.1569 37.0929C43.1078 37.1312 43.0362 37.0971 43.0362 37.0338ZM53.6176 36.0466L50.2964 34.1438C50.2597 34.118 50.2572 34.1729 50.2914 34.1438L53.6351 31.699C53.68 31.6599 53.7508 31.6915 53.7508 31.7515C53.7433 33.164 53.735 34.5774 53.7275 35.99C53.7267 36.0466 53.6634 36.0791 53.6176 36.0466Z" fill="white"/>
<path d="M38.6478 30.5454C38.6394 30.5479 37.8312 30.8275 37.5398 31.6974C37.2477 32.5672 37.2735 41.7785 37.3342 41.8859C37.3351 41.8867 37.3342 41.8851 37.3342 41.8859C37.3392 41.9217 37.6006 43.1029 38.5837 43.4982C39.4019 43.8279 44.0334 45.6858 45.6607 46.3384C46.2142 46.5606 46.7211 46.7354 47.2797 46.5257C47.5053 46.4408 47.8848 46.2352 48.038 46.0579C48.5449 45.471 48.3435 42.1847 48.3293 41.9633C48.3285 41.9558 48.1579 42.0332 48.1512 42.0307L43.4665 40.1537C42.5434 39.7841 41.8883 38.9359 41.7934 37.9462C41.7742 37.7464 41.8025 37.5316 41.79 37.3027C41.6952 35.5897 41.8874 32.1394 41.9415 30.9349C41.994 29.7529 38.6652 30.5412 38.6478 30.5454Z" fill="#2928FC"/>
<path d="M43.8745 38.5272L48.4469 35.1552C49.33 35.2367 50.0825 35.3583 51.0081 35.6621C51.436 35.8028 51.6491 35.9251 51.982 36.1141C52.2018 36.2389 52.4623 36.5228 52.5955 36.7375C52.5963 36.7392 52.5972 36.74 52.598 36.7417C52.6946 36.8998 52.7753 37.0488 52.8153 37.192C52.8502 37.3169 52.8211 37.1829 52.9002 37.545C53.0283 38.1351 53.015 38.8094 53.02 39.5285C53.0242 40.1445 52.9984 40.7222 52.9534 41.2558C52.9151 41.7061 52.7195 42.1273 52.3957 42.4428C52.2134 42.6201 52.0012 42.8232 51.7639 43.0429C49.9144 44.7535 47.9549 46.1394 47.9549 46.1394C48.2279 45.039 48.2879 44.1184 48.272 43.4733C48.2404 42.2014 48.2005 40.579 47.1475 39.7691C46.9311 39.6026 46.5199 39.4453 45.6983 39.1315C44.9533 38.8468 44.3198 38.6529 43.8745 38.5272Z" fill="#FF0101"/>
<path d="M55.3329 28.6425L55.2197 36.5935L59.5973 37.9262L59.7063 26.678C59.509 26.5365 59.2136 26.3443 58.8307 26.1628C58.551 26.0304 58.3512 25.9364 58.1922 25.9081C58.1914 25.9081 57.4772 25.7807 55.3329 28.6425Z" fill="#2928FC"/>
<path d="M45.8533 32.6987C45.2024 32.5389 44.5615 32.3416 43.9305 32.1144C43.1039 31.8164 41.728 31.4268 41.0871 31.3394C39.8551 31.1696 38.7863 31.0955 37.9473 31.0623C38.6823 29.8944 40.5643 27.9358 42.925 27.2699C43.5742 27.0867 44.2643 27.1034 44.9077 27.3065C45.7926 27.5862 47.0586 27.9857 47.0586 27.9857C47.9418 28.2646 48.9041 28.1114 49.6565 27.5729L52.9062 25.2463C53.2075 25.0307 53.5546 24.8892 53.9209 24.8326C54.2214 24.7868 54.5269 24.7985 54.8224 24.8684C55.9428 25.1348 58.8062 25.8714 59.7069 26.6589C58.9744 26.8953 57.9397 27.2907 56.7902 27.9591C56.4064 28.1822 56.0843 28.3778 55.7505 28.6075C55.5607 28.7382 55.4009 28.8564 55.2794 28.9496C55.1653 29.037 55.0813 29.1036 55.0538 29.1261C53.9317 30.0218 52.6049 30.999 51.7708 31.5642C50.4257 32.4757 49.6099 33.0292 48.4654 33.0999C47.8253 33.1391 46.719 32.911 45.8533 32.6987Z" fill="#FF0101"/>
<path d="M64.0536 40.9594C65.2947 41.3457 66.5258 41.7203 67.7461 42.084L67.7319 27.8884L73.9999 22.1557L69.6789 20.3485C68.0749 19.6776 66.1679 19.9923 64.8427 21.146L60.1313 25.2963L60.2862 39.7158C60.3736 39.7466 60.4618 39.7774 60.55 39.8082C61.7237 40.2194 62.8924 40.6032 64.0536 40.9594Z" fill="white"/>
<path d="M63.0571 24.7094L65.8998 22.2704C66.6839 21.5979 67.7993 21.4081 68.749 21.786L71.0231 22.6891L67.4264 26.0853L63.0571 24.7094Z" fill="#FF0101"/>
<path d="M61.5514 27.3456L66.2994 28.804L66.2303 40.3152L61.5015 38.5863L61.5514 27.3456Z" fill="#2928FC"/>
<path d="M27.528 56.9122C27.0373 56.9122 26.6107 56.8188 26.248 56.6322C25.8907 56.4455 25.584 56.1735 25.328 55.8162L26 55.0482C26.2613 55.4162 26.5147 55.6695 26.76 55.8082C27.0107 55.9415 27.2933 56.0082 27.608 56.0082C27.7893 56.0082 27.9547 55.9815 28.104 55.9282C28.2533 55.8748 28.3707 55.8002 28.456 55.7042C28.5413 55.6028 28.584 55.4855 28.584 55.3522C28.584 55.2615 28.5653 55.1788 28.528 55.1042C28.496 55.0242 28.4453 54.9548 28.376 54.8962C28.312 54.8322 28.2293 54.7735 28.128 54.7202C28.032 54.6668 27.9173 54.6215 27.784 54.5842C27.656 54.5415 27.5147 54.5068 27.36 54.4802C27.0613 54.4215 26.8027 54.3442 26.584 54.2482C26.3707 54.1468 26.1893 54.0242 26.04 53.8802C25.896 53.7308 25.7867 53.5655 25.712 53.3842C25.6427 53.1975 25.608 52.9868 25.608 52.7522C25.608 52.4375 25.696 52.1602 25.872 51.9202C26.0533 51.6748 26.2933 51.4828 26.592 51.3442C26.896 51.2055 27.2293 51.1362 27.592 51.1362C28.0613 51.1362 28.4587 51.2215 28.784 51.3922C29.1147 51.5628 29.3733 51.8055 29.56 52.1202L28.872 52.7922C28.712 52.5468 28.5227 52.3602 28.304 52.2322C28.0853 52.1042 27.848 52.0402 27.592 52.0402C27.4 52.0402 27.232 52.0695 27.088 52.1282C26.9493 52.1815 26.84 52.2588 26.76 52.3602C26.68 52.4562 26.64 52.5735 26.64 52.7122C26.64 52.8135 26.6613 52.9068 26.704 52.9922C26.752 53.0775 26.8213 53.1522 26.912 53.2162C27.0027 53.2802 27.1173 53.3362 27.256 53.3842C27.3947 53.4322 27.5547 53.4748 27.736 53.5122C28.0293 53.5762 28.2907 53.6562 28.52 53.7522C28.7547 53.8482 28.952 53.9655 29.112 54.1042C29.2773 54.2375 29.4027 54.3922 29.488 54.5682C29.5733 54.7388 29.616 54.9308 29.616 55.1442C29.616 55.5068 29.5307 55.8215 29.36 56.0882C29.1893 56.3548 28.9467 56.5602 28.632 56.7042C28.3173 56.8428 27.9493 56.9122 27.528 56.9122ZM32.5194 56.9122C32.0981 56.9122 31.7221 56.8188 31.3914 56.6322C31.0608 56.4402 30.7994 56.1788 30.6074 55.8482C30.4208 55.5175 30.3274 55.1415 30.3274 54.7202C30.3274 54.2988 30.4208 53.9228 30.6074 53.5922C30.7994 53.2615 31.0608 53.0028 31.3914 52.8162C31.7221 52.6242 32.0981 52.5282 32.5194 52.5282C32.9354 52.5282 33.3088 52.6242 33.6394 52.8162C33.9701 53.0028 34.2288 53.2615 34.4154 53.5922C34.6074 53.9228 34.7034 54.2988 34.7034 54.7202C34.7034 55.1415 34.6074 55.5175 34.4154 55.8482C34.2288 56.1788 33.9701 56.4402 33.6394 56.6322C33.3088 56.8188 32.9354 56.9122 32.5194 56.9122ZM32.5194 56.0402C32.7488 56.0402 32.9541 55.9842 33.1354 55.8722C33.3168 55.7548 33.4581 55.5975 33.5594 55.4002C33.6661 55.1975 33.7168 54.9708 33.7114 54.7202C33.7168 54.4642 33.6661 54.2375 33.5594 54.0402C33.4581 53.8375 33.3168 53.6802 33.1354 53.5682C32.9541 53.4562 32.7488 53.4002 32.5194 53.4002C32.2901 53.4002 32.0821 53.4588 31.8954 53.5762C31.7141 53.6882 31.5728 53.8455 31.4714 54.0482C31.3701 54.2455 31.3194 54.4695 31.3194 54.7202C31.3194 54.9708 31.3701 55.1975 31.4714 55.4002C31.5728 55.5975 31.7141 55.7548 31.8954 55.8722C32.0821 55.9842 32.2901 56.0402 32.5194 56.0402ZM37.3918 56.9122C36.9971 56.9122 36.6425 56.8162 36.3278 56.6242C36.0131 56.4322 35.7651 56.1708 35.5838 55.8402C35.4025 55.5095 35.3118 55.1362 35.3118 54.7202C35.3118 54.3042 35.4025 53.9308 35.5838 53.6002C35.7651 53.2695 36.0131 53.0082 36.3278 52.8162C36.6425 52.6242 36.9971 52.5282 37.3918 52.5282C37.7651 52.5282 38.1065 52.6028 38.4158 52.7522C38.7305 52.8962 38.9705 53.0935 39.1358 53.3442L38.5998 54.0002C38.5198 53.8882 38.4185 53.7868 38.2958 53.6962C38.1731 53.6055 38.0398 53.5335 37.8958 53.4802C37.7571 53.4268 37.6211 53.4002 37.4878 53.4002C37.2478 53.4002 37.0345 53.4588 36.8478 53.5762C36.6665 53.6882 36.5225 53.8455 36.4158 54.0482C36.3091 54.2455 36.2558 54.4695 36.2558 54.7202C36.2558 54.9708 36.3091 55.1948 36.4158 55.3922C36.5278 55.5895 36.6771 55.7468 36.8638 55.8642C37.0505 55.9815 37.2585 56.0402 37.4878 56.0402C37.6318 56.0402 37.7678 56.0188 37.8958 55.9762C38.0238 55.9282 38.1465 55.8615 38.2638 55.7762C38.3865 55.6908 38.4985 55.5842 38.5998 55.4562L39.1358 56.1122C38.9598 56.3468 38.7118 56.5388 38.3918 56.6882C38.0718 56.8375 37.7385 56.9122 37.3918 56.9122ZM40.0005 56.8322V52.6162H40.9765V56.8322H40.0005ZM40.4805 51.7202C40.2832 51.7202 40.1285 51.6722 40.0165 51.5762C39.9098 51.4748 39.8565 51.3335 39.8565 51.1522C39.8565 50.9815 39.9125 50.8455 40.0245 50.7442C40.1365 50.6375 40.2885 50.5842 40.4805 50.5842C40.6778 50.5842 40.8298 50.6348 40.9365 50.7362C41.0485 50.8322 41.1045 50.9708 41.1045 51.1522C41.1045 51.3175 41.0485 51.4535 40.9365 51.5602C40.8245 51.6668 40.6725 51.7202 40.4805 51.7202ZM44.6324 56.8322V54.1362C44.6324 53.9068 44.5551 53.7282 44.4004 53.6002C44.2511 53.4668 44.0564 53.4002 43.8164 53.4002C43.5924 53.4002 43.3898 53.4455 43.2084 53.5362C43.0271 53.6215 42.8591 53.7602 42.7044 53.9522L42.0964 53.3442C42.3471 53.0775 42.6244 52.8748 42.9284 52.7362C43.2324 52.5975 43.5604 52.5282 43.9124 52.5282C44.2484 52.5282 44.5364 52.5815 44.7764 52.6882C45.0218 52.7948 45.2111 52.9548 45.3444 53.1682C45.4778 53.3762 45.5444 53.6322 45.5444 53.9362V56.8322H44.6324ZM43.4324 56.9122C43.1604 56.9122 42.9178 56.8588 42.7044 56.7522C42.4911 56.6455 42.3204 56.4988 42.1924 56.3122C42.0698 56.1202 42.0084 55.8962 42.0084 55.6402C42.0084 55.4162 42.0484 55.2215 42.1284 55.0562C42.2084 54.8855 42.3258 54.7442 42.4804 54.6322C42.6404 54.5202 42.8378 54.4375 43.0724 54.3842C43.3124 54.3255 43.5871 54.2962 43.8964 54.2962H45.1044L45.0324 55.0002H43.8404C43.6964 55.0002 43.5684 55.0135 43.4564 55.0402C43.3444 55.0668 43.2484 55.1068 43.1684 55.1602C43.0884 55.2135 43.0298 55.2775 42.9924 55.3522C42.9551 55.4215 42.9364 55.5068 42.9364 55.6082C42.9364 55.7148 42.9631 55.8082 43.0164 55.8882C43.0698 55.9628 43.1418 56.0215 43.2324 56.0642C43.3231 56.1068 43.4298 56.1282 43.5524 56.1282C43.7284 56.1282 43.8938 56.0988 44.0484 56.0402C44.2084 55.9815 44.3498 55.8988 44.4724 55.7922C44.5951 55.6855 44.6911 55.5655 44.7604 55.4322L44.9604 55.9762C44.8484 56.1628 44.7098 56.3255 44.5444 56.4642C44.3844 56.6028 44.2084 56.7122 44.0164 56.7922C43.8298 56.8722 43.6351 56.9122 43.4324 56.9122ZM46.5918 56.8322V50.9122H47.5678V56.8322H46.5918ZM51.252 56.8322V51.2322H52.18L55.444 55.6162L55.268 55.6562C55.2307 55.4108 55.1987 55.1495 55.172 54.8722C55.1507 54.5948 55.1347 54.2935 55.124 53.9682C55.1133 53.6428 55.108 53.2882 55.108 52.9042V51.2322H56.132V56.8322H55.188L51.924 52.5202L52.116 52.4642C52.1533 52.8428 52.1827 53.1548 52.204 53.4002C52.2253 53.6402 52.2413 53.8375 52.252 53.9922C52.2627 54.1468 52.268 54.2748 52.268 54.3762C52.2733 54.4775 52.276 54.5735 52.276 54.6642V56.8322H51.252ZM59.4348 56.9122C58.9921 56.9122 58.6001 56.8215 58.2588 56.6402C57.9228 56.4535 57.6588 56.2002 57.4668 55.8802C57.2801 55.5548 57.1868 55.1815 57.1868 54.7602C57.1868 54.4295 57.2401 54.1282 57.3468 53.8562C57.4535 53.5842 57.6028 53.3495 57.7948 53.1522C57.9868 52.9495 58.2135 52.7948 58.4748 52.6882C58.7415 52.5762 59.0295 52.5202 59.3388 52.5202C59.6215 52.5202 59.8801 52.5735 60.1148 52.6802C60.3548 52.7868 60.5628 52.9335 60.7388 53.1202C60.9148 53.3015 61.0481 53.5202 61.1388 53.7762C61.2348 54.0268 61.2801 54.3015 61.2748 54.6002L61.2668 54.9522H57.8588L57.6668 54.2722H60.4428L60.3228 54.4082V54.2242C60.3068 54.0642 60.2535 53.9228 60.1628 53.8002C60.0721 53.6722 59.9548 53.5735 59.8108 53.5042C59.6721 53.4295 59.5175 53.3922 59.3468 53.3922C59.0855 53.3922 58.8641 53.4428 58.6828 53.5442C58.5015 53.6402 58.3628 53.7842 58.2668 53.9762C58.1761 54.1682 58.1308 54.4055 58.1308 54.6882C58.1308 54.9602 58.1868 55.1975 58.2988 55.4002C58.4161 55.6028 58.5815 55.7602 58.7948 55.8722C59.0081 55.9842 59.2561 56.0402 59.5388 56.0402C59.7361 56.0402 59.9175 56.0082 60.0828 55.9442C60.2535 55.8802 60.4348 55.7655 60.6268 55.6002L61.1068 56.2722C60.9628 56.4055 60.7975 56.5202 60.6108 56.6162C60.4295 56.7068 60.2375 56.7788 60.0348 56.8322C59.8321 56.8855 59.6321 56.9122 59.4348 56.9122ZM62.6103 56.8322V51.5442H63.5863V56.8322H62.6103ZM61.7783 53.5282V52.6162H64.5063V53.5282H61.7783ZM66.2477 56.8322L64.8317 52.6162L65.8397 52.6082L66.7837 55.6242L66.5997 55.6002L67.6317 53.2562H68.2157L69.2717 55.6082L69.0637 55.6242L70.0157 52.6162H71.0237L69.5917 56.8322H68.9037L67.8157 54.2962L67.9677 54.3122L66.9437 56.8322H66.2477ZM73.5429 56.9122C73.1215 56.9122 72.7455 56.8188 72.4149 56.6322C72.0842 56.4402 71.8229 56.1788 71.6309 55.8482C71.4442 55.5175 71.3509 55.1415 71.3509 54.7202C71.3509 54.2988 71.4442 53.9228 71.6309 53.5922C71.8229 53.2615 72.0842 53.0028 72.4149 52.8162C72.7455 52.6242 73.1215 52.5282 73.5429 52.5282C73.9589 52.5282 74.3322 52.6242 74.6629 52.8162C74.9935 53.0028 75.2522 53.2615 75.4389 53.5922C75.6309 53.9228 75.7269 54.2988 75.7269 54.7202C75.7269 55.1415 75.6309 55.5175 75.4389 55.8482C75.2522 56.1788 74.9935 56.4402 74.6629 56.6322C74.3322 56.8188 73.9589 56.9122 73.5429 56.9122ZM73.5429 56.0402C73.7722 56.0402 73.9775 55.9842 74.1589 55.8722C74.3402 55.7548 74.4815 55.5975 74.5829 55.4002C74.6895 55.1975 74.7402 54.9708 74.7349 54.7202C74.7402 54.4642 74.6895 54.2375 74.5829 54.0402C74.4815 53.8375 74.3402 53.6802 74.1589 53.5682C73.9775 53.4562 73.7722 53.4002 73.5429 53.4002C73.3135 53.4002 73.1055 53.4588 72.9189 53.5762C72.7375 53.6882 72.5962 53.8455 72.4949 54.0482C72.3935 54.2455 72.3429 54.4695 72.3429 54.7202C72.3429 54.9708 72.3935 55.1975 72.4949 55.4002C72.5962 55.5975 72.7375 55.7548 72.9189 55.8722C73.1055 55.9842 73.3135 56.0402 73.5429 56.0402ZM76.6073 56.8322V52.6162H77.5673L77.5833 53.9602L77.4553 53.6562C77.5139 53.4428 77.6153 53.2508 77.7593 53.0802C77.9033 52.9095 78.0686 52.7762 78.2553 52.6802C78.4473 52.5788 78.6446 52.5282 78.8473 52.5282C78.9379 52.5282 79.0233 52.5362 79.1033 52.5522C79.1886 52.5682 79.2579 52.5868 79.3113 52.6082L79.0553 53.6802C78.9913 53.6482 78.9166 53.6242 78.8313 53.6082C78.7513 53.5868 78.6686 53.5762 78.5833 53.5762C78.4446 53.5762 78.3139 53.6028 78.1913 53.6562C78.0739 53.7042 77.9699 53.7735 77.8793 53.8642C77.7939 53.9548 77.7246 54.0615 77.6713 54.1842C77.6179 54.3015 77.5913 54.4322 77.5913 54.5762V56.8322H76.6073ZM80.8864 55.5442L80.7024 54.6162L82.7024 52.6162H84.0064L80.8864 55.5442ZM79.9744 56.8322V50.9122H80.9504V56.8322H79.9744ZM82.8144 56.8322L81.2704 54.9602L81.9584 54.3682L84.0304 56.8322H82.8144Z" fill="white"/>
</svg>
